# xmcd CD database file
#
# Track frame offsets:
#	150
#	12188
#	22721
#	33744
#	47368
#	59027
#	70164
#	83632
#	95225
#	106336
#	118412
#	131697
#	143988
#	157023
#	169591
#	180141
#	192446
#	205245
#	214130
#	226175
#	235798
#	247629
#	259246
#	271446
#	282777
#
# Disc length: 3896 seconds
#
# Revision: 0
# Processed by: cddbd v1.5.1PL2 Copyright (c) Steve Scherf et al.
# Submitted via: CDex 1.51
#
DISCID=5e0f3619
DTITLE=Various Artist - 100xNo.1 Country Hits CD4
DYEAR=2005
DGENRE=Country
TTITLE0=Hank Williams - Take These Chains From My Heart
TTITLE1=Les Paul, Mary Ford - Mocking Bird Hill
TTITLE2=The Carlisles - No Help Wanted
TTITLE3=The Davis Sisters - I Forgot More Than You'll Ever Know
TTITLE4=Carl Smith - Loose Talk
TTITLE5=Eddy Arnold - The Lovebug Itch
TTITLE6=Hank Snow - It Don't Hurt Anymore
TTITLE7=Webb Pierce - Slowly
TTITLE8=Hank Snow - Let Me Go, Lover
TTITLE9=Jim Reeves - Mexican Joe
TTITLE10=Kitty Wells and Red Foley - One By One
TTITLE11=Tommy Collins - Watcha Gonna Do Now
TTITLE12=Webb Pierce - Love, Love, Love
TTITLE13=Eddy Arnold - The Cattle Call
TTITLE14=Faron Young - Live Fast, Love Hard, Die Young
TTITLE15=Marty Robbins - I'll Go On Alone
TTITLE16=Porter Wagoner - A Satisfied Mind
TTITLE17=Jhonnie and Jack - Oh Baby Mine ( I Get So Lonesome)
TTITLE18=Tennessee Ernie Ford - Sixteen Tons
TTITLE19=Webb Pierce - In The Jailhouse Now
TTITLE20=Frankie Laine - Mule Train
TTITLE21=Webb Pierce and Red Sovine - Why Baby Why
TTITLE22=Jimmy Heap and The Melody Makers - Release Me
TTITLE23=Tommy Collins - You Better Not Do That
TTITLE24=The Louvin Brothers - I Don't Believe You've Met My Baby
EXTD=YEAR: 2005
EXTT0=
EXTT1=
EXTT2=
EXTT3=
EXTT4=
EXTT5=
EXTT6=
EXTT7=
EXTT8=
EXTT9=
EXTT10=
EXTT11=
EXTT12=
EXTT13=
EXTT14=
EXTT15=
EXTT16=
EXTT17=
EXTT18=
EXTT19=
EXTT20=
EXTT21=
EXTT22=
EXTT23=
EXTT24=
PLAYORDER=
